<svg xmlns="http://www.w3.org/2000/svg" viewBox="0 0 1600 1000" role="img" aria-labelledby="title desc">
  <title id="title">Demo Preview Screenshot Concept</title>
  <desc id="desc">Concept art for the fake-data demo preview mode.</desc>
  <rect width="1600" height="1000" fill="#e9e1d3"/>
  <rect x="54" y="42" width="1492" height="916" rx="30" fill="#103447"/>
  <rect x="88" y="78" width="1424" height="848" rx="24" fill="#f8f2e8"/>
  <rect x="122" y="116" width="1356" height="78" rx="22" fill="#fff8d2"/>
  <text x="160" y="164" fill="#0f2f2c" font-family="Trebuchet MS, Verdana, sans-serif" font-size="30" font-weight="700">Demo preview with fake merchant data</text>
  <rect x="122" y="232" width="1356" height="204" rx="28" fill="#18485d"/>
  <text x="164" y="304" fill="#d3e7de" font-family="Trebuchet MS, Verdana, sans-serif" font-size="24">Simulated product launch</text>
  <text x="164" y="372" fill="#f8f2e8" font-family="Georgia, Times New Roman, serif" font-size="70" font-weight="700">Aurora Bundle</text>
  <text x="1202" y="372" fill="#f4d35e" font-family="Georgia, Times New Roman, serif" font-size="64" font-weight="700">$89.00</text>
  <rect x="122" y="476" width="412" height="246" rx="24" fill="#fffdf8"/>
  <rect x="594" y="476" width="412" height="246" rx="24" fill="#fffdf8"/>
  <rect x="1066" y="476" width="412" height="246" rx="24" fill="#fffdf8"/>
  <text x="156" y="540" fill="#6a7e7a" font-family="Trebuchet MS, Verdana, sans-serif" font-size="22">Hero banner</text>
  <text x="156" y="592" fill="#0f2f2c" font-family="Trebuchet MS, Verdana, sans-serif" font-size="34" font-weight="700">Performance sample</text>
  <text x="628" y="540" fill="#6a7e7a" font-family="Trebuchet MS, Verdana, sans-serif" font-size="22">Checkout path</text>
  <text x="628" y="592" fill="#0f2f2c" font-family="Trebuchet MS, Verdana, sans-serif" font-size="34" font-weight="700">Revenue risk sample</text>
  <text x="1100" y="540" fill="#6a7e7a" font-family="Trebuchet MS, Verdana, sans-serif" font-size="22">Assets</text>
  <text x="1100" y="592" fill="#0f2f2c" font-family="Trebuchet MS, Verdana, sans-serif" font-size="34" font-weight="700">Broken resource sample</text>
  <rect x="122" y="774" width="388" height="62" rx="31" fill="#f4d35e"/>
  <rect x="538" y="774" width="310" height="62" rx="31" fill="#214f54"/>
  <text x="176" y="814" fill="#0b2239" font-family="Trebuchet MS, Verdana, sans-serif" font-size="26" font-weight="700">Populate Full Demo Session</text>
  <text x="605" y="814" fill="#eef8f1" font-family="Trebuchet MS, Verdana, sans-serif" font-size="26" font-weight="700">Simulate Recovery</text>
  <text x="1010" y="902" fill="#5f7072" font-family="Trebuchet MS, Verdana, sans-serif" font-size="24">Suggested App Market screenshot: built-in demo mode and owner-facing actions</text>
</svg>