<svg xmlns="http://www.w3.org/2000/svg" viewBox="0 0 1600 1000" role="img" aria-labelledby="title desc">
  <title id="title">Settings Screenshot Concept</title>
  <desc id="desc">Concept art for session controls and owner-only positioning.</desc>
  <rect width="1600" height="1000" fill="#efe6d8"/>
  <rect x="52" y="44" width="1496" height="912" rx="30" fill="#faf6ef" stroke="#dad1c4" stroke-width="4"/>
  <rect x="98" y="110" width="582" height="780" rx="26" fill="#fffdf8" stroke="#e0d7c9" stroke-width="3"/>
  <text x="136" y="178" fill="#103447" font-family="Georgia, Times New Roman, serif" font-size="50" font-weight="700">Session Controls</text>
  <rect x="136" y="234" width="506" height="120" rx="22" fill="#f4f8f5"/>
  <rect x="136" y="388" width="506" height="120" rx="22" fill="#f4f8f5"/>
  <rect x="136" y="548" width="506" height="98" rx="18" fill="#f8f2e8"/>
  <rect x="136" y="682" width="506" height="98" rx="18" fill="#f8f2e8"/>
  <rect x="136" y="814" width="270" height="56" rx="28" fill="#214f54"/>
  <text x="176" y="850" fill="#eef8f1" font-family="Trebuchet MS, Verdana, sans-serif" font-size="24" font-weight="700">Save Session Settings</text>
  <rect x="742" y="110" width="708" height="330" rx="26" fill="#16394c"/>
  <text x="786" y="186" fill="#d7e8df" font-family="Trebuchet MS, Verdana, sans-serif" font-size="24">Owner-only mode</text>
  <text x="786" y="264" fill="#f8f2e8" font-family="Georgia, Times New Roman, serif" font-size="58" font-weight="700">No live shopper tracking</text>
  <text x="786" y="332" fill="#d3e7de" font-family="Trebuchet MS, Verdana, sans-serif" font-size="30">Diagnostics exist only while the merchant uses the embedded preview.</text>
  <rect x="742" y="492" width="708" height="398" rx="26" fill="#fffdf8" stroke="#e0d7c9" stroke-width="3"/>
  <text x="786" y="562" fill="#103447" font-family="Georgia, Times New Roman, serif" font-size="48" font-weight="700">Publishing Support Pages</text>
  <rect x="786" y="620" width="618" height="52" rx="14" fill="#f8f2e8"/>
  <rect x="786" y="702" width="618" height="52" rx="14" fill="#f8f2e8"/>
  <rect x="786" y="784" width="420" height="52" rx="14" fill="#f8f2e8"/>
  <text x="1218" y="940" fill="#6f7f81" font-family="Trebuchet MS, Verdana, sans-serif" font-size="24">Suggested App Market screenshot: session settings and privacy posture</text>
</svg>