<svg xmlns="http://www.w3.org/2000/svg" viewBox="0 0 1600 1000" role="img" aria-labelledby="title desc">
  <title id="title">Dashboard Screenshot Concept</title>
  <desc id="desc">Concept art for the session summary and incident feed.</desc>
  <rect width="1600" height="1000" fill="#f2ece1"/>
  <rect x="48" y="44" width="1504" height="912" rx="30" fill="#faf6ef" stroke="#d8d0c1" stroke-width="4"/>
  <rect x="48" y="44" width="1504" height="92" rx="30" fill="#103447"/>
  <text x="96" y="101" fill="#f8f2e8" font-family="Georgia, Times New Roman, serif" font-size="42" font-weight="700">Storefront Error Radar</text>
  <rect x="88" y="176" width="420" height="250" rx="24" fill="#16394c"/>
  <rect x="530" y="176" width="420" height="250" rx="24" fill="#214f54"/>
  <rect x="972" y="176" width="492" height="250" rx="24" fill="#0f2f2c"/>
  <text x="126" y="240" fill="#d3e7de" font-family="Trebuchet MS, Verdana, sans-serif" font-size="28">Recent Signals</text>
  <text x="126" y="344" fill="#f7f1e5" font-family="Georgia, Times New Roman, serif" font-size="94" font-weight="700">12</text>
  <text x="568" y="240" fill="#d3e7de" font-family="Trebuchet MS, Verdana, sans-serif" font-size="28">Critical Path Failures</text>
  <text x="568" y="344" fill="#f4d35e" font-family="Georgia, Times New Roman, serif" font-size="94" font-weight="700">3</text>
  <text x="1010" y="240" fill="#d3e7de" font-family="Trebuchet MS, Verdana, sans-serif" font-size="28">Runtime</text>
  <text x="1010" y="316" fill="#f7f1e5" font-family="Trebuchet MS, Verdana, sans-serif" font-size="34" font-weight="700">Ecwid admin iframe</text>
  <text x="1010" y="368" fill="#d7e8df" font-family="Trebuchet MS, Verdana, sans-serif" font-size="26">Browser local storage only</text>
  <rect x="88" y="470" width="1376" height="430" rx="24" fill="#fffdf8" stroke="#e3dacb" stroke-width="3"/>
  <rect x="122" y="514" width="1310" height="56" rx="18" fill="#e8efe8"/>
  <text x="152" y="550" fill="#103447" font-family="Trebuchet MS, Verdana, sans-serif" font-size="26" font-weight="700">Incident Feed</text>
  <rect x="122" y="612" width="1310" height="54" rx="12" fill="#f8f2e8"/>
  <rect x="122" y="688" width="1310" height="54" rx="12" fill="#f8f2e8"/>
  <rect x="122" y="764" width="1310" height="54" rx="12" fill="#f8f2e8"/>
  <text x="164" y="647" fill="#214f54" font-family="Trebuchet MS, Verdana, sans-serif" font-size="24">critical path failure</text>
  <text x="164" y="723" fill="#214f54" font-family="Trebuchet MS, Verdana, sans-serif" font-size="24">resource error</text>
  <text x="164" y="799" fill="#214f54" font-family="Trebuchet MS, Verdana, sans-serif" font-size="24">slow request</text>
  <text x="1210" y="938" fill="#6f7f81" font-family="Trebuchet MS, Verdana, sans-serif" font-size="24">Suggested App Market screenshot: session summary and incident feed</text>
</svg>